<?xml version="1.0" standalone="no"?><svg xmlns="http://www.w3.org/2000/svg" viewBox="0 0 1440 320"><path fill="#00ff89" fill-opacity="1" d="M0,96L20,80C40,64,80,32,120,48C160,64,200,128,240,149.3C280,171,320,149,360,160C400,171,440,213,480,208C520,203,560,149,600,160C640,171,680,245,720,277.3C760,309,800,299,840,282.7C880,267,920,245,960,224C1000,203,1040,181,1080,192C1120,203,1160,245,1200,234.7C1240,224,1280,160,1320,144C1360,128,1400,160,1420,176L1440,192L1440,320L1420,320C1400,320,1360,320,1320,320C1280,320,1240,320,1200,320C1160,320,1120,320,1080,320C1040,320,1000,320,960,320C920,320,880,320,840,320C800,320,760,320,720,320C680,320,640,320,600,320C560,320,520,320,480,320C440,320,400,320,360,320C320,320,280,320,240,320C200,320,160,320,120,320C80,320,40,320,20,320L0,320Z"></path></svg>